
<svg width="6" height="4" viewBox="0 0 6 4" fill="none" xmlns="http://www.w3.org/2000/svg">
<path d="M2.92505 1.20711L5.13676 3.85355C5.29995 4.04882 5.56452 4.04882 5.72771 3.85355C5.89089 3.65829 5.89089 3.34171 5.72771 3.14645L3.22052 0.146447C3.05734 -0.048815 2.79276 -0.048815 2.62957 0.146447L0.122389 3.14645C-0.0407967 3.34171 -0.0407967 3.65829 0.122389 3.85355C0.285575 4.04882 0.550152 4.04882 0.713338 3.85355L2.92505 1.20711Z" fill="white"/>
<mask id="mask0_269_4474" style="mask-type:luminance" maskUnits="userSpaceOnUse" x="0" y="0" width="6" height="4">
<path d="M2.92505 1.20711L5.13676 3.85355C5.29995 4.04882 5.56452 4.04882 5.72771 3.85355C5.89089 3.65829 5.89089 3.34171 5.72771 3.14645L3.22052 0.146447C3.05734 -0.048815 2.79276 -0.048815 2.62957 0.146447L0.122389 3.14645C-0.0407967 3.34171 -0.0407967 3.65829 0.122389 3.85355C0.285575 4.04882 0.550152 4.04882 0.713338 3.85355L2.92505 1.20711Z" fill="white"/>
</mask>
<g mask="url(#mask0_269_4474)">
</g>
</svg>
