
<svg width="21" height="13" viewBox="0 0 21 13" fill="none" xmlns="http://www.w3.org/2000/svg">
<path d="M2.57812 1.21045C3.38021 0.408366 4.35417 0.00732422 5.5 0.00732422C6.64583 0.00732422 7.61979 0.408366 8.42188 1.21045C9.22396 2.01253 9.625 2.98649 9.625 4.13232C9.625 5.53597 9.05208 6.65316 7.90625 7.48389C8.96615 7.99951 9.76823 8.7443 10.3125 9.71826C10.8568 8.7443 11.6589 7.99951 12.7188 7.48389C11.5729 6.65316 11 5.53597 11 4.13232C11 2.98649 11.401 2.01253 12.2031 1.21045C13.0052 0.408366 13.9792 0.00732422 15.125 0.00732422C16.2708 0.00732422 17.2448 0.408366 18.0469 1.21045C18.849 2.01253 19.25 2.98649 19.25 4.13232C19.25 5.53597 18.6771 6.65316 17.5312 7.48389C18.4766 7.94222 19.2214 8.6154 19.7656 9.50342C20.3385 10.3628 20.625 11.3224 20.625 12.3823H19.25C19.25 11.2365 18.849 10.2625 18.0469 9.46045C17.2448 8.65837 16.2708 8.25732 15.125 8.25732C13.9792 8.25732 13.0052 8.65837 12.2031 9.46045C11.401 10.2625 11 11.2365 11 12.3823H9.625C9.625 11.2365 9.22396 10.2625 8.42188 9.46045C7.61979 8.65837 6.64583 8.25732 5.5 8.25732C4.35417 8.25732 3.38021 8.65837 2.57812 9.46045C1.77604 10.2625 1.375 11.2365 1.375 12.3823H0C0 11.3224 0.272135 10.3628 0.816406 9.50342C1.38932 8.6154 2.14844 7.94222 3.09375 7.48389C1.94792 6.65316 1.375 5.53597 1.375 4.13232C1.375 2.98649 1.77604 2.01253 2.57812 1.21045ZM7.43359 2.19873C6.91797 1.65446 6.27344 1.38232 5.5 1.38232C4.72656 1.38232 4.06771 1.65446 3.52344 2.19873C3.00781 2.71436 2.75 3.35889 2.75 4.13232C2.75 4.90576 3.00781 5.56462 3.52344 6.10889C4.06771 6.62451 4.72656 6.88232 5.5 6.88232C6.27344 6.88232 6.91797 6.62451 7.43359 6.10889C7.97786 5.56462 8.25 4.90576 8.25 4.13232C8.25 3.35889 7.97786 2.71436 7.43359 2.19873ZM17.0586 2.19873C16.543 1.65446 15.8984 1.38232 15.125 1.38232C14.3516 1.38232 13.6927 1.65446 13.1484 2.19873C12.6328 2.71436 12.375 3.35889 12.375 4.13232C12.375 4.90576 12.6328 5.56462 13.1484 6.10889C13.6927 6.62451 14.3516 6.88232 15.125 6.88232C15.8984 6.88232 16.543 6.62451 17.0586 6.10889C17.6029 5.56462 17.875 4.90576 17.875 4.13232C17.875 3.35889 17.6029 2.71436 17.0586 2.19873Z" fill="#202224"/>
</svg>
