
<svg width="20" height="20" viewBox="0 0 20 20" fill="none" xmlns="http://www.w3.org/2000/svg">
<path d="M10 1.25C9.2125 1.25 8.65635 1.80625 8.38135 2.5H3.125V18.125H16.875V2.5H11.6187C11.3437 1.80625 10.7875 1.25 10 1.25ZM10 2.5C10.3438 2.5 10.625 2.78125 10.625 3.125V3.75H12.5V5H7.5V3.75H9.375V3.125C9.375 2.78125 9.65625 2.5 10 2.5ZM4.375 3.75H6.25V6.25H13.75V3.75H15.625V16.875H4.375V3.75ZM5.625 8.125V9.375H6.875V8.125H5.625ZM8.125 8.125V9.375H14.375V8.125H8.125ZM5.625 10.625V11.875H6.875V10.625H5.625ZM8.125 10.625V11.875H14.375V10.625H8.125ZM5.625 13.125V14.375H6.875V13.125H5.625ZM8.125 13.125V14.375H14.375V13.125H8.125Z" fill="black"/>
</svg>
