
<svg width="21" height="21" viewBox="0 0 21 21" fill="none" xmlns="http://www.w3.org/2000/svg">
<path d="M10.125 0C4.54175 0 0 4.54175 0 10.125C0 15.7083 4.54175 20.25 10.125 20.25C15.7083 20.25 20.25 15.7083 20.25 10.125C20.25 4.54175 15.7083 0 10.125 0ZM10.125 1.6875C14.7953 1.6875 18.5625 5.45471 18.5625 10.125C18.5625 14.7953 14.7953 18.5625 10.125 18.5625C5.45471 18.5625 1.6875 14.7953 1.6875 10.125C1.6875 5.45471 5.45471 1.6875 10.125 1.6875ZM10.125 5.0625C8.26941 5.0625 6.75 6.58191 6.75 8.4375H8.4375C8.4375 7.49487 9.18237 6.75 10.125 6.75C11.0676 6.75 11.8125 7.49487 11.8125 8.4375C11.8125 9.0835 11.3972 9.65698 10.7842 9.86133L10.4414 9.9668C9.75256 10.1942 9.28125 10.8534 9.28125 11.5752V12.6562H10.9688V11.5752L11.3115 11.4697C12.6101 11.038 13.5 9.8053 13.5 8.4375C13.5 6.58191 11.9806 5.0625 10.125 5.0625ZM9.28125 13.5V15.1875H10.9688V13.5H9.28125Z" fill="black"/>
</svg>
