
<svg width="15" height="18" viewBox="0 0 15 18" fill="none" xmlns="http://www.w3.org/2000/svg">
<path d="M5.50781 1.78223C5.88021 0.86556 6.48177 0.407227 7.3125 0.407227C8.14323 0.407227 8.74479 0.86556 9.11719 1.78223H10.75H11.4375H13.5H14.1875V2.46973V16.9072V17.5947H13.5H1.125H0.4375V16.9072V2.46973V1.78223H1.125H3.1875H3.875H5.50781ZM7.78516 1.99707C7.67057 1.85384 7.51302 1.78223 7.3125 1.78223C7.11198 1.78223 6.9401 1.85384 6.79688 1.99707C6.68229 2.11165 6.625 2.26921 6.625 2.46973V3.15723H5.9375H4.5625V4.53223H10.0625V3.15723H8.6875H8V2.46973C8 2.26921 7.92839 2.11165 7.78516 1.99707ZM1.8125 3.15723V16.2197H12.8125V3.15723H11.4375V5.21973V5.90723H10.75H3.875H3.1875V5.21973V3.15723H1.8125Z" fill="#202224"/>
</svg>
