
<svg width="1440" height="324" viewBox="0 0 1440 324" fill="none" xmlns="http://www.w3.org/2000/svg">
<path d="M-91.8857 280.021L-94 281.5V323.5H1444.5V1C1317.5 71.6667 1023.3 217.2 862.5 234C661.5 255 625.5 160 438 100C251.053 40.1768 146.12 113.565 -91.8857 280.021Z" fill="url(#paint0_linear_30_907)"/>
<path d="M-91.8857 280.021L-94 281.5V323.5H1444.5V1C1317.5 71.6667 1023.3 217.2 862.5 234C661.5 255 625.5 160 438 100C251.053 40.1768 146.12 113.565 -91.8857 280.021Z" fill="url(#paint1_radial_30_907)"/>
<path d="M-91.8857 280.021L-94 281.5V323.5H1444.5V1C1317.5 71.6667 1023.3 217.2 862.5 234C661.5 255 625.5 160 438 100C251.053 40.1768 146.12 113.565 -91.8857 280.021Z" stroke="url(#paint2_linear_30_907)"/>
<defs>
<linearGradient id="paint0_linear_30_907" x1="675.25" y1="94" x2="675.25" y2="323.5" gradientUnits="userSpaceOnUse">
<stop stop-color="#BFDCFE"/>
<stop offset="1" stop-color="#EBF3FD"/>
</linearGradient>
<radialGradient id="paint1_radial_30_907" cx="0" cy="0" r="1" gradientUnits="userSpaceOnUse" gradientTransform="translate(1095 -300.5) rotate(165.753) scale(824.869 2462.35)">
<stop stop-color="#B3DDFF"/>
<stop offset="1" stop-color="white" stop-opacity="0"/>
</radialGradient>
<linearGradient id="paint2_linear_30_907" x1="-94" y1="162.25" x2="1444.5" y2="162.25" gradientUnits="userSpaceOnUse">
<stop stop-color="#99C8FF"/>
<stop offset="1" stop-color="#CCDDFF"/>
</linearGradient>
</defs>
</svg>
