
<svg width="23" height="23" viewBox="0 0 23 23" fill="none" xmlns="http://www.w3.org/2000/svg">
<path d="M11.4998 3.59375C11.3877 3.59375 11.2755 3.6152 11.1727 3.65833L2.29641 7.75183C2.10953 7.83808 2.10953 7.97302 2.29641 8.05927L11.1727 12.1542C11.2755 12.1973 11.3877 12.2188 11.4998 12.2188C11.6119 12.2188 11.7241 12.1973 11.8269 12.1542L20.7031 8.05927C20.89 7.97302 20.89 7.83808 20.7031 7.75183L11.8269 3.65833C11.7241 3.6152 11.6119 3.59375 11.4998 3.59375ZM11.4998 5.09021L17.6035 7.90625L11.4998 10.7223L5.39602 7.90625L11.4998 5.09021ZM3.47841 10.384L2.29641 10.975C2.10953 11.0684 2.10953 11.2128 2.29641 11.3063L11.1727 15.7423C11.2755 15.789 11.3877 15.8125 11.4998 15.8125C11.6119 15.8125 11.7241 15.789 11.8269 15.7423L20.7031 11.3063C20.89 11.2128 20.89 11.0684 20.7031 10.975L19.5211 10.384L11.8269 14.229C11.7241 14.2757 11.6119 14.2992 11.4998 14.2992C11.3877 14.2992 11.2755 14.2757 11.1727 14.229L3.47841 10.384ZM3.47841 13.9777L2.29641 14.5687C2.10953 14.6622 2.10953 14.8066 2.29641 14.9L11.1727 19.3361C11.2755 19.3828 11.3877 19.4062 11.4998 19.4062C11.6119 19.4062 11.7241 19.3828 11.8269 19.3361L20.7031 14.9C20.89 14.8066 20.89 14.6622 20.7031 14.5687L19.5211 13.9777L11.8269 17.8228C11.7241 17.8695 11.6119 17.8929 11.4998 17.8929C11.3877 17.8929 11.2755 17.8695 11.1727 17.8228L3.47841 13.9777Z" fill="black"/>
</svg>
