
<svg width="19" height="19" viewBox="0 0 19 19" fill="none" xmlns="http://www.w3.org/2000/svg">
<path d="M3.5625 1.78125V17.2188H13.0625V16.0312H4.75V2.96875H10.6875V6.53125H14.25V7.71875H15.4375V5.69977L15.2589 5.52234L11.6964 1.95984L11.519 1.78125H3.5625ZM11.875 3.80023L13.4185 5.34375H11.875V3.80023ZM5.9375 7.71875V8.90625H13.0625V7.71875H5.9375ZM16.0312 8.90625V10.0938C15.0219 10.2719 14.25 11.1031 14.25 12.1719C14.25 13.3594 15.1406 14.25 16.3281 14.25H16.9219C17.3969 14.25 17.8125 14.6656 17.8125 15.1406C17.8125 15.6156 17.3969 16.0312 16.9219 16.0312H14.8438V17.2188H16.0312V18.4062H17.2188V17.2188C18.2281 17.0406 19 16.2094 19 15.1406C19 13.9531 18.1094 13.0625 16.9219 13.0625H16.3281C15.8531 13.0625 15.4375 12.6469 15.4375 12.1719C15.4375 11.6969 15.8531 11.2812 16.3281 11.2812H18.4062V10.0938H17.2188V8.90625H16.0312ZM5.9375 10.6875V11.875H10.0938V10.6875H5.9375ZM11.2812 10.6875V11.875H13.0625V10.6875H11.2812ZM5.9375 13.0625V14.25H10.0938V13.0625H5.9375ZM11.2812 13.0625V14.25H13.0625V13.0625H11.2812Z" fill="black"/>
</svg>
